<?xml version="1.0" encoding="UTF-8" standalone="no"?>
<!-- Created with Inkscape (http://www.inkscape.org/) -->

<svg
   xmlns:dc="http://purl.org/dc/elements/1.1/"
   xmlns:cc="http://creativecommons.org/ns#"
   xmlns:rdf="http://www.w3.org/1999/02/22-rdf-syntax-ns#"
   xmlns:svg="http://www.w3.org/2000/svg"
   xmlns="http://www.w3.org/2000/svg"
   xmlns:sodipodi="http://sodipodi.sourceforge.net/DTD/sodipodi-0.dtd"
   xmlns:inkscape="http://www.inkscape.org/namespaces/inkscape"
   width="210mm"
   height="297mm"
   viewBox="0 0 744.09448819 1052.3622047"
   id="svg5371"
   version="1.1"
   inkscape:version="0.91 r13725"
   sodipodi:docname="exit+.svg">
  <defs
     id="defs5373" />
  <sodipodi:namedview
     id="base"
     pagecolor="#ffffff"
     bordercolor="#666666"
     borderopacity="1.0"
     inkscape:pageopacity="0.0"
     inkscape:pageshadow="2"
     inkscape:zoom="1.4"
     inkscape:cx="104.78075"
     inkscape:cy="860.2463"
     inkscape:document-units="px"
     inkscape:current-layer="layer1"
     showgrid="false"
     inkscape:window-width="1916"
     inkscape:window-height="1058"
     inkscape:window-x="0"
     inkscape:window-y="20"
     inkscape:window-maximized="0" />
  <metadata
     id="metadata5376">
    <rdf:RDF>
      <cc:Work
         rdf:about="">
        <dc:format>image/svg+xml</dc:format>
        <dc:type
           rdf:resource="http://purl.org/dc/dcmitype/StillImage" />
        <dc:title></dc:title>
      </cc:Work>
    </rdf:RDF>
  </metadata>
  <g
     inkscape:label="Layer 1"
     inkscape:groupmode="layer"
     id="layer1">
    <path
       style="fill:#1affff;fill-opacity:0.75806448;fill-rule:evenodd;stroke:none;stroke-width:1px;stroke-linecap:butt;stroke-linejoin:miter;stroke-opacity:1"
       d="m 140.53747,148.1494 c 0.79924,-16.50943 21.48173,-19.16176 32.30796,-10.14908 14.9551,11.06034 10.61616,33.65014 1.45212,47.10614 -13.50799,12.05296 -34.04448,18.04403 -51.16885,9.92397 -23.689838,-7.19974 -34.403854,-34.38324 -32.008715,-57.26873 1.61393,-19.14729 12.404965,-37.47389 30.077455,-45.855186 27.43524,-16.66355 64.85279,-12.62954 88.70944,8.455566 23.31293,22.82683 29.67809,58.86053 19.08731,89.19807 -4.68827,14.24242 -10.78151,29.09901 -24.09559,37.34156 -24.89534,19.86445 -59.10374,32.26932 -90.42925,21.08698 C 77.466742,237.69841 49.455459,205.39227 40.641099,168.53145 29.877738,130.00829 48.444962,88.320234 77.284584,62.600204 117.49234,27.291875 181.30915,27.078357 225.14938,55.782035 c 29.52142,22.005029 45.79469,57.670485 53.37944,92.875885 2.1854,33.76927 -0.55874,70.7153 -21.43114,98.84173 -23.27144,31.53336 -59.60427,54.68329 -99.37308,56.59219 -7.7248,-1.15578 -18.86443,4.42175 -4.51715,3.82411 35.85807,0.22259 70.37667,-15.78804 97.26698,-38.73196 22.81408,-22.95917 39.1778,-51.89742 46.71039,-83.38665 8.92122,-31.14204 -0.24869,-64.16982 -12.31559,-93.157246 C 275.83239,70.102534 255.52187,55.28739 237.85613,39.810463 213.90591,19.847684 182.75786,8.2652444 151.56189,8.4343004 117.19341,10.516095 81.502022,20.41244 56.174026,44.947911 34.423243,64.682904 19.853898,92.026544 13.848057,120.59531 c -4.7858547,39.71384 4.700308,83.55124 33.814745,112.39234 25.486857,23.2143 59.485358,40.50514 94.691808,37.85757 25.74297,-3.75005 51.9632,-12.96855 71.27766,-30.88821 16.83541,-18.85586 32.26451,-41.24489 32.64836,-67.51995 1.65336,-25.72922 0.83004,-55.49952 -19.60722,-74.277936 -18.12996,-19.69179 -41.60495,-38.88622 -69.97253,-37.64918 -27.37776,-0.38544 -55.60145,10.98694 -73.905013,31.52666 -20.048418,24.942886 -24.16378,61.646106 -8.035714,89.642846 16.987096,31.27345 61.155587,47.35919 92.499997,27.67857 23.814,-12.28926 34.72796,-43.1034 25.6545,-67.89248 -9.80659,-19.65244 -33.57175,-35.45041 -55.66594,-26.27283 -16.68066,4.78799 -26.31008,25.53474 -16.83649,40.76275 2.74816,11.3121 25.02486,17.72184 26.38036,3.11961 -0.77338,-4.17039 -2.9539,-8.21792 -6.25511,-10.92567 z"
       id="path5930"
       inkscape:connector-curvature="0" />
  </g>
</svg>
